<?xml version="1.0" standalone="no"?>
<!DOCTYPE svg PUBLIC "-//W3C//DTD SVG 20010904//EN"
 "http://www.w3.org/TR/2001/REC-SVG-20010904/DTD/svg10.dtd">
<svg version="1.0" xmlns="http://www.w3.org/2000/svg"
 width="500.000000pt" height="500.000000pt" viewBox="0 0 500.000000 500.000000"
 preserveAspectRatio="xMidYMid meet">

<g transform="translate(0.000000,500.000000) scale(0.100000,-0.100000)"
fill="#000000" stroke="none">
<path d="M2105 4553 c-222 -13 -485 -55 -710 -113 -411 -106 -743 -277 -961
-494 -145 -145 -207 -259 -304 -563 -84 -264 -120 -491 -120 -764 0 -472 75
-713 290 -929 253 -254 561 -386 1296 -555 276 -63 349 -104 390 -217 26 -72
4 -191 -61 -334 -19 -42 -29 -74 -22 -71 6 3 82 33 167 67 493 197 711 267
1311 419 424 107 567 155 769 257 245 124 376 237 519 449 182 271 279 571
312 962 33 394 -50 782 -221 1033 -233 341 -640 589 -1199 730 -207 52 -557
102 -836 120 -145 9 -495 11 -620 3z m2360 -1126 c58 -58 85 -200 85 -447 0
-163 -13 -288 -41 -393 -24 -87 -51 -134 -92 -157 -24 -13 -30 -13 -54 0 -40
23 -72 87 -94 193 -27 121 -38 481 -19 610 15 111 51 185 100 209 51 26 78 22
115 -15z m-883 -14 c100 -55 138 -131 138 -279 0 -181 -63 -260 -181 -225 -54
16 -69 50 -69 150 0 44 -3 86 -6 95 -8 20 -65 21 -103 2 -84 -44 -155 -254
-156 -461 0 -93 4 -118 22 -157 28 -62 59 -77 116 -57 60 21 119 119 72 119
-30 0 -75 31 -91 62 -19 37 -13 91 13 120 92 102 459 103 506 1 25 -56 -32
-165 -97 -181 -26 -7 -31 -15 -46 -70 -43 -156 -147 -300 -255 -352 -40 -19
-67 -24 -130 -24 -70 -1 -87 3 -134 29 -147 81 -244 289 -244 525 0 304 135
584 332 689 110 58 222 63 313 14z m-2273 17 c37 -5 77 -18 92 -29 27 -20 30
-20 96 -4 42 10 112 16 183 17 97 0 122 -3 162 -21 80 -36 97 -94 46 -158 -21
-26 -87 -65 -111 -65 -11 0 -15 -38 -21 -187 -4 -104 -13 -255 -21 -338 -8
-82 -15 -155 -15 -161 0 -6 18 -14 40 -18 23 -4 54 -18 72 -35 27 -24 33 -36
33 -70 0 -98 -105 -156 -330 -182 -127 -14 -201 -4 -238 33 -25 25 -28 33 -22
66 9 52 49 99 103 125 26 12 49 23 51 25 14 8 47 471 51 688 0 6 -25 14 -56
17 -30 3 -67 13 -81 22 -23 16 -28 15 -76 -4 -29 -11 -64 -23 -78 -26 -24 -6
-27 -12 -34 -73 -4 -37 -10 -229 -14 -427 -6 -347 -7 -362 -29 -402 -27 -51
-47 -63 -105 -63 -39 0 -49 5 -75 34 -18 21 -34 55 -41 87 -7 30 -14 215 -18
431 l-6 378 -72 0 c-124 0 -195 37 -195 103 0 113 206 206 523 236 116 12 115
12 186 1z m942 -16 c37 -19 96 -102 132 -187 17 -40 63 -166 103 -282 l73
-210 0 203 c1 205 11 312 37 386 35 98 115 127 178 64 162 -162 129 -993 -45
-1155 -92 -85 -221 -22 -312 152 -11 22 -53 119 -93 215 l-74 175 0 -125 c0
-310 -45 -440 -150 -440 -81 0 -130 79 -156 252 -36 231 14 674 95 844 57 121
121 154 212 108z m2214 -1068 c109 -46 41 -186 -91 -186 -98 0 -139 84 -73
149 47 47 107 61 164 37z"/>
</g>
</svg>
